<!-- <svg xmlns="http://www.w3.org/2000/svg" fill="#ffffff" viewBox="0 0 24 24" stroke-width="1.5" stroke="currentColor" class="w-6 h-6">
    <path stroke-linecap="round" stroke-linejoin="round" d="M6 12L3.269 3.126A59.768 59.768 0 0121.485 12 59.77 59.77 0 013.27 20.876L5.999 12zm0 0h7.5" />
</svg> -->
<svg 
stroke="currentColor" 
fill="#3b3b3b" 
stroke-width="0" 
viewBox="0 0 20 20" 
class="h-4 w-4 rotate-90" 
height="1em" 
width="1em"
 xmlns="http://www.w3.org/2000/svg">
 <path d="M10.894 2.553a1 1 0 00-1.788 0l-7 14a1 1 0 001.169 1.409l5-1.429A1 1 0 009 15.571V11a1 1 0 112 0v4.571a1 1 0 00.725.962l5 1.428a1 1 0 001.17-1.408l-7-14z">
</path></svg>